<?xml version="1.0" encoding="UTF-8" standalone="no"?>
<!DOCTYPE svg PUBLIC "-//W3C//DTD SVG 1.1//EN"
 "http://www.w3.org/Graphics/SVG/1.1/DTD/svg11.dtd">
<!-- Generated by graphviz version 2.43.0 (0)
 -->
<!-- Title: OceanFish_Architecture Pages: 1 -->
<svg width="983pt" height="514pt"
 viewBox="0.00 0.00 982.50 514.00" xmlns="http://www.w3.org/2000/svg" xmlns:xlink="http://www.w3.org/1999/xlink">
<g id="graph0" class="graph" transform="scale(1 1) rotate(0) translate(4 510)">
<title>OceanFish_Architecture</title>
<polygon fill="white" stroke="transparent" points="-4,4 -4,-510 978.5,-510 978.5,4 -4,4"/>
<g id="clust1" class="cluster">
<title>cluster_main</title>
<path fill="#bbdefb" stroke="black" d="M336,-208C336,-208 596,-208 596,-208 602,-208 608,-214 608,-220 608,-220 608,-486 608,-486 608,-492 602,-498 596,-498 596,-498 336,-498 336,-498 330,-498 324,-492 324,-486 324,-486 324,-220 324,-220 324,-214 330,-208 336,-208"/>
<text text-anchor="middle" x="466" y="-483.6" font-family="Arial Bold" font-size="13.00">Главная программа (Kotlin Multiplatform)</text>
</g>
<!-- UI -->
<g id="node1" class="node">
<title>UI</title>
<path fill="#81c4ff" stroke="black" d="M539.5,-468C539.5,-468 392.5,-468 392.5,-468 386.5,-468 380.5,-462 380.5,-456 380.5,-456 380.5,-444 380.5,-444 380.5,-438 386.5,-432 392.5,-432 392.5,-432 539.5,-432 539.5,-432 545.5,-432 551.5,-438 551.5,-444 551.5,-444 551.5,-456 551.5,-456 551.5,-462 545.5,-468 539.5,-468"/>
<text text-anchor="middle" x="466" y="-453.2" font-family="Arial" font-size="11.00">Пользовательский интерфейс</text>
<text text-anchor="middle" x="466" y="-441.2" font-family="Arial" font-size="11.00">Kotlin/Compose Multiplatform</text>
</g>
<!-- Core -->
<g id="node2" class="node">
<title>Core</title>
<path fill="#81c4ff" stroke="black" d="M517.5,-360C517.5,-360 414.5,-360 414.5,-360 408.5,-360 402.5,-354 402.5,-348 402.5,-348 402.5,-336 402.5,-336 402.5,-330 408.5,-324 414.5,-324 414.5,-324 517.5,-324 517.5,-324 523.5,-324 529.5,-330 529.5,-336 529.5,-336 529.5,-348 529.5,-348 529.5,-354 523.5,-360 517.5,-360"/>
<text text-anchor="middle" x="466" y="-345.2" font-family="Arial" font-size="11.00">Общая бизнес&#45;логика</text>
<text text-anchor="middle" x="466" y="-333.2" font-family="Arial" font-size="11.00">KMP shared module</text>
</g>
<!-- UI&#45;&gt;Core -->
<g id="edge1" class="edge">
<title>UI&#45;&gt;Core</title>
<path fill="none" stroke="black" stroke-width="1.5" d="M466,-431.68C466,-431.68 466,-368.05 466,-368.05"/>
<polygon fill="black" stroke="black" stroke-width="1.5" points="468.8,-368.05 466,-360.05 463.2,-368.05 468.8,-368.05"/>
</g>
<!-- Gateway -->
<g id="node3" class="node">
<title>Gateway</title>
<path fill="#81c4ff" stroke="black" d="M528.5,-252C528.5,-252 403.5,-252 403.5,-252 397.5,-252 391.5,-246 391.5,-240 391.5,-240 391.5,-228 391.5,-228 391.5,-222 397.5,-216 403.5,-216 403.5,-216 528.5,-216 528.5,-216 534.5,-216 540.5,-222 540.5,-228 540.5,-228 540.5,-240 540.5,-240 540.5,-246 534.5,-252 528.5,-252"/>
<text text-anchor="middle" x="466" y="-231.2" font-family="Arial" font-size="11.00">API Gateway / Orchestrator</text>
</g>
<!-- Core&#45;&gt;Gateway -->
<g id="edge2" class="edge">
<title>Core&#45;&gt;Gateway</title>
<path fill="none" stroke="black" stroke-width="1.5" d="M466,-323.68C466,-323.68 466,-260.05 466,-260.05"/>
<polygon fill="black" stroke="black" stroke-width="1.5" points="468.8,-260.05 466,-252.05 463.2,-260.05 468.8,-260.05"/>
</g>
<!-- HR -->
<g id="node4" class="node">
<title>HR</title>
<path fill="#e3f2fd" stroke="black" d="M108,-144C108,-144 12,-144 12,-144 6,-144 0,-138 0,-132 0,-132 0,-120 0,-120 0,-114 6,-108 12,-108 12,-108 108,-108 108,-108 114,-108 120,-114 120,-120 120,-120 120,-132 120,-132 120,-138 114,-144 108,-144"/>
<text text-anchor="middle" x="60" y="-129.2" font-family="Arial" font-size="11.00">Подсистема Отдела</text>
<text text-anchor="middle" x="60" y="-117.2" font-family="Arial" font-size="11.00">кадрового учёта</text>
</g>
<!-- Gateway&#45;&gt;HR -->
<g id="edge3" class="edge">
<title>Gateway&#45;&gt;HR</title>
<path fill="none" stroke="black" stroke-width="1.5" d="M391.06,-240C273.75,-240 60,-240 60,-240 60,-240 60,-152.06 60,-152.06"/>
<polygon fill="black" stroke="black" stroke-width="1.5" points="62.8,-152.06 60,-144.06 57.2,-152.06 62.8,-152.06"/>
</g>
<!-- VED -->
<g id="node5" class="node">
<title>VED</title>
<path fill="#e3f2fd" stroke="black" d="M343.5,-144C343.5,-144 168.5,-144 168.5,-144 162.5,-144 156.5,-138 156.5,-132 156.5,-132 156.5,-120 156.5,-120 156.5,-114 162.5,-108 168.5,-108 168.5,-108 343.5,-108 343.5,-108 349.5,-108 355.5,-114 355.5,-120 355.5,-120 355.5,-132 355.5,-132 355.5,-138 349.5,-144 343.5,-144"/>
<text text-anchor="middle" x="256" y="-129.2" font-family="Arial" font-size="11.00">Подсистема Внешнеэкономической</text>
<text text-anchor="middle" x="256" y="-117.2" font-family="Arial" font-size="11.00">деятельности</text>
</g>
<!-- Gateway&#45;&gt;VED -->
<g id="edge4" class="edge">
<title>Gateway&#45;&gt;VED</title>
<path fill="none" stroke="black" stroke-width="1.5" d="M391.37,-228C331.01,-228 256,-228 256,-228 256,-228 256,-152.24 256,-152.24"/>
<polygon fill="black" stroke="black" stroke-width="1.5" points="258.8,-152.24 256,-144.24 253.2,-152.24 258.8,-152.24"/>
</g>
<!-- Monitoring -->
<g id="node6" class="node">
<title>Monitoring</title>
<path fill="#e3f2fd" stroke="black" d="M528,-144C528,-144 404,-144 404,-144 398,-144 392,-138 392,-132 392,-132 392,-120 392,-120 392,-114 398,-108 404,-108 404,-108 528,-108 528,-108 534,-108 540,-114 540,-120 540,-120 540,-132 540,-132 540,-138 534,-144 528,-144"/>
<text text-anchor="middle" x="466" y="-129.2" font-family="Arial" font-size="11.00">Подсистема Мониторинга</text>
<text text-anchor="middle" x="466" y="-117.2" font-family="Arial" font-size="11.00">судов</text>
</g>
<!-- Gateway&#45;&gt;Monitoring -->
<g id="edge5" class="edge">
<title>Gateway&#45;&gt;Monitoring</title>
<path fill="none" stroke="black" stroke-width="1.5" d="M466,-215.68C466,-215.68 466,-152.05 466,-152.05"/>
<polygon fill="black" stroke="black" stroke-width="1.5" points="468.8,-152.05 466,-144.05 463.2,-152.05 468.8,-152.05"/>
</g>
<!-- Fishing -->
<g id="node7" class="node">
<title>Fishing</title>
<path fill="#e3f2fd" stroke="black" d="M731.5,-144C731.5,-144 588.5,-144 588.5,-144 582.5,-144 576.5,-138 576.5,-132 576.5,-132 576.5,-120 576.5,-120 576.5,-114 582.5,-108 588.5,-108 588.5,-108 731.5,-108 731.5,-108 737.5,-108 743.5,-114 743.5,-120 743.5,-120 743.5,-132 743.5,-132 743.5,-138 737.5,-144 731.5,-144"/>
<text text-anchor="middle" x="660" y="-129.2" font-family="Arial" font-size="11.00">Подсистема Промышленного</text>
<text text-anchor="middle" x="660" y="-117.2" font-family="Arial" font-size="11.00">рыболовства</text>
</g>
<!-- Gateway&#45;&gt;Fishing -->
<g id="edge6" class="edge">
<title>Gateway&#45;&gt;Fishing</title>
<path fill="none" stroke="black" stroke-width="1.5" d="M540.73,-228C595.38,-228 660,-228 660,-228 660,-228 660,-152.24 660,-152.24"/>
<polygon fill="black" stroke="black" stroke-width="1.5" points="662.8,-152.24 660,-144.24 657.2,-152.24 662.8,-152.24"/>
</g>
<!-- User -->
<g id="node8" class="node">
<title>User</title>
<path fill="#ffcc80" stroke="black" d="M962.5,-144C962.5,-144 791.5,-144 791.5,-144 785.5,-144 779.5,-138 779.5,-132 779.5,-132 779.5,-120 779.5,-120 779.5,-114 785.5,-108 791.5,-108 791.5,-108 962.5,-108 962.5,-108 968.5,-108 974.5,-114 974.5,-120 974.5,-120 974.5,-132 974.5,-132 974.5,-138 968.5,-144 962.5,-144"/>
<text text-anchor="middle" x="877" y="-129.2" font-family="Arial" font-size="11.00">Интеграция всех микросервисов —</text>
<text text-anchor="middle" x="877" y="-117.2" font-family="Arial" font-size="11.00">интеграция</text>
</g>
<!-- Gateway&#45;&gt;User -->
<g id="edge7" class="edge">
<title>Gateway&#45;&gt;User</title>
<path fill="none" stroke="black" stroke-width="1.5" d="M540.91,-240C659.45,-240 877,-240 877,-240 877,-240 877,-152.06 877,-152.06"/>
<polygon fill="black" stroke="black" stroke-width="1.5" points="879.8,-152.06 877,-144.06 874.2,-152.06 879.8,-152.06"/>
</g>
<!-- Docker -->
<g id="node9" class="node">
<title>Docker</title>
<ellipse fill="#fff9c4" stroke="black" cx="466" cy="-18" rx="67.93" ry="18"/>
<text text-anchor="middle" x="466" y="-14.9" font-family="Arial" font-size="12.00">Docker Compose</text>
</g>
<!-- HR&#45;&gt;Docker -->
<g id="edge8" class="edge">
<title>HR&#45;&gt;Docker</title>
<path fill="none" stroke="black" stroke-width="1.5" d="M60,-107.94C60,-75.79 60,-12 60,-12 60,-12 394.12,-12 394.12,-12"/>
<polygon fill="black" stroke="black" stroke-width="1.5" points="394.12,-14.8 402.12,-12 394.12,-9.2 394.12,-14.8"/>
</g>
<!-- VED&#45;&gt;Docker -->
<g id="edge9" class="edge">
<title>VED&#45;&gt;Docker</title>
<path fill="none" stroke="black" stroke-width="1.5" d="M256,-107.76C256,-78.43 256,-24 256,-24 256,-24 394.14,-24 394.14,-24"/>
<polygon fill="black" stroke="black" stroke-width="1.5" points="394.14,-26.8 402.14,-24 394.14,-21.2 394.14,-26.8"/>
</g>
<!-- Monitoring&#45;&gt;Docker -->
<g id="edge10" class="edge">
<title>Monitoring&#45;&gt;Docker</title>
<path fill="none" stroke="black" stroke-width="1.5" d="M466,-107.68C466,-107.68 466,-44.05 466,-44.05"/>
<polygon fill="black" stroke="black" stroke-width="1.5" points="468.8,-44.05 466,-36.05 463.2,-44.05 468.8,-44.05"/>
</g>
<!-- Fishing&#45;&gt;Docker -->
<g id="edge11" class="edge">
<title>Fishing&#45;&gt;Docker</title>
<path fill="none" stroke="black" stroke-width="1.5" d="M660,-107.76C660,-78.43 660,-24 660,-24 660,-24 538.06,-24 538.06,-24"/>
<polygon fill="black" stroke="black" stroke-width="1.5" points="538.06,-21.2 530.06,-24 538.06,-26.8 538.06,-21.2"/>
</g>
<!-- User&#45;&gt;Docker -->
<g id="edge12" class="edge">
<title>User&#45;&gt;Docker</title>
<path fill="none" stroke="black" stroke-width="1.5" d="M877,-107.94C877,-75.79 877,-12 877,-12 877,-12 538.22,-12 538.22,-12"/>
<polygon fill="black" stroke="black" stroke-width="1.5" points="538.22,-9.2 530.22,-12 538.22,-14.8 538.22,-9.2"/>
</g>
</g>
</svg>
